0
SECTION
2
HEADER
9
$ACADVER
1
AC1009
0
ENDSEC
0
SECTION
2
TABLES
0
TABLE
2
LAYER
70
3
0
LAYER
2
Contours
70
0
62
5
6
CONTINUOUS
0
LAYER
2
Circles
70
0
62
7
6
CONTINUOUS
0
LAYER
2
Centers
70
0
62
1
6
CONTINUOUS
0
ENDTAB
0
ENDSEC
0
SECTION
2
ENTITIES
0
LINE
8
Centers
10
649
20
-184
30
0
11
653
21
-184
31
0
0
LINE
8
Centers
10
651
20
-182
30
0
11
651
21
-186
31
0
0
LINE
8
Centers
10
662
20
-186
30
0
11
666
21
-186
31
0
0
LINE
8
Centers
10
664
20
-184
30
0
11
664
21
-188
31
0
0
LINE
8
Centers
10
674
20
-192
30
0
11
678
21
-192
31
0
0
LINE
8
Centers
10
676
20
-190
30
0
11
676
21
-194
31
0
0
LINE
8
Centers
10
692
20
-211
30
0
11
696
21
-211
31
0
0
LINE
8
Centers
10
694
20
-209
30
0
11
694
21
-213
31
0
0
LINE
8
Centers
10
703
20
-234
30
0
11
707
21
-234
31
0
0
LINE
8
Centers
10
705
20
-232
30
0
11
705
21
-236
31
0
0
LINE
8
Centers
10
707
20
-247
30
0
11
711
21
-247
31
0
0
LINE
8
Centers
10
709
20
-245
30
0
11
709
21
-249
31
0
0
LINE
8
Centers
10
710
20
-260
30
0
11
714
21
-260
31
0
0
LINE
8
Centers
10
712
20
-258
30
0
11
712
21
-262
31
0
0
LINE
8
Centers
10
715
20
-285
30
0
11
719
21
-285
31
0
0
LINE
8
Centers
10
717
20
-283
30
0
11
717
21
-287
31
0
0
LINE
8
Centers
10
716
20
-299
30
0
11
720
21
-299
31
0
0
LINE
8
Centers
10
718
20
-297
30
0
11
718
21
-301
31
0
0
LINE
8
Centers
10
717
20
-325
30
0
11
721
21
-325
31
0
0
LINE
8
Centers
10
719
20
-323
30
0
11
719
21
-327
31
0
0
LINE
8
Centers
10
716
20
-351
30
0
11
720
21
-351
31
0
0
LINE
8
Centers
10
718
20
-349
30
0
11
718
21
-353
31
0
0
LINE
8
Centers
10
715
20
-364
30
0
11
719
21
-364
31
0
0
LINE
8
Centers
10
717
20
-362
30
0
11
717
21
-366
31
0
0
LINE
8
Centers
10
714
20
-377
30
0
11
718
21
-377
31
0
0
LINE
8
Centers
10
716
20
-375
30
0
11
716
21
-379
31
0
0
LINE
8
Centers
10
712
20
-390
30
0
11
716
21
-390
31
0
0
LINE
8
Centers
10
714
20
-388
30
0
11
714
21
-392
31
0
0
LINE
8
Centers
10
709
20
-403
30
0
11
713
21
-403
31
0
0
LINE
8
Centers
10
711
20
-401
30
0
11
711
21
-405
31
0
0
LINE
8
Centers
10
706
20
-416
30
0
11
710
21
-416
31
0
0
LINE
8
Centers
10
708
20
-414
30
0
11
708
21
-418
31
0
0
LINE
8
Centers
10
696
20
-440
30
0
11
700
21
-440
31
0
0
LINE
8
Centers
10
698
20
-438
30
0
11
698
21
-442
31
0
0
LINE
8
Centers
10
689
20
-451
30
0
11
693
21
-451
31
0
0
LINE
8
Centers
10
691
20
-449
30
0
11
691
21
-453
31
0
0
LINE
8
Centers
10
669
20
-468
30
0
11
673
21
-468
31
0
0
LINE
8
Centers
10
671
20
-466
30
0
11
671
21
-470
31
0
0
LINE
8
Centers
10
644
20
-473
30
0
11
648
21
-473
31
0
0
LINE
8
Centers
10
646
20
-471
30
0
11
646
21
-475
31
0
0
LINE
8
Centers
10
631
20
-470
30
0
11
635
21
-470
31
0
0
LINE
8
Centers
10
633
20
-468
30
0
11
633
21
-472
31
0
0
LINE
8
Centers
10
611
20
-454
30
0
11
615
21
-454
31
0
0
LINE
8
Centers
10
613
20
-452
30
0
11
613
21
-456
31
0
0
LINE
8
Centers
10
597
20
-433
30
0
11
601
21
-433
31
0
0
LINE
8
Centers
10
599
20
-431
30
0
11
599
21
-435
31
0
0
LINE
8
Centers
10
588
20
-408
30
0
11
592
21
-408
31
0
0
LINE
8
Centers
10
590
20
-406
30
0
11
590
21
-410
31
0
0
LINE
8
Centers
10
585
20
-395
30
0
11
589
21
-395
31
0
0
LINE
8
Centers
10
587
20
-393
30
0
11
587
21
-397
31
0
0
LINE
8
Centers
10
583
20
-382
30
0
11
587
21
-382
31
0
0
LINE
8
Centers
10
585
20
-380
30
0
11
585
21
-384
31
0
0
LINE
8
Centers
10
582
20
-369
30
0
11
586
21
-369
31
0
0
LINE
8
Centers
10
584
20
-367
30
0
11
584
21
-371
31
0
0
LINE
8
Centers
10
580
20
-356
30
0
11
584
21
-356
31
0
0
LINE
8
Centers
10
582
20
-354
30
0
11
582
21
-358
31
0
0
LINE
8
Centers
10
580
20
-330
30
0
11
584
21
-330
31
0
0
LINE
8
Centers
10
582
20
-328
30
0
11
582
21
-332
31
0
0
LINE
8
Centers
10
580
20
-304
30
0
11
584
21
-304
31
0
0
LINE
8
Centers
10
582
20
-302
30
0
11
582
21
-306
31
0
0
LINE
8
Centers
10
581
20
-291
30
0
11
585
21
-291
31
0
0
LINE
8
Centers
10
583
20
-289
30
0
11
583
21
-293
31
0
0
LINE
8
Centers
10
583
20
-278
30
0
11
587
21
-278
31
0
0
LINE
8
Centers
10
585
20
-276
30
0
11
585
21
-280
31
0
0
LINE
8
Centers
10
585
20
-265
30
0
11
589
21
-265
31
0
0
LINE
8
Centers
10
587
20
-263
30
0
11
587
21
-267
31
0
0
LINE
8
Centers
10
588
20
-252
30
0
11
592
21
-252
31
0
0
LINE
8
Centers
10
590
20
-250
30
0
11
590
21
-254
31
0
0
LINE
8
Centers
10
591
20
-239
30
0
11
595
21
-239
31
0
0
LINE
8
Centers
10
593
20
-237
30
0
11
593
21
-241
31
0
0
LINE
8
Centers
10
602
20
-215
30
0
11
606
21
-215
31
0
0
LINE
8
Centers
10
604
20
-213
30
0
11
604
21
-217
31
0
0
LINE
8
Centers
10
619
20
-195
30
0
11
623
21
-195
31
0
0
LINE
8
Centers
10
621
20
-193
30
0
11
621
21
-197
31
0
0
LINE
8
Centers
10
630
20
-188
30
0
11
634
21
-188
31
0
0
LINE
8
Centers
10
632
20
-186
30
0
11
632
21
-190
31
0
0
LINE
8
Centers
10
1131
20
-137
30
0
11
1135
21
-137
31
0
0
LINE
8
Centers
10
1133
20
-135
30
0
11
1133
21
-139
31
0
0
LINE
8
Centers
10
1157
20
-137
30
0
11
1161
21
-137
31
0
0
LINE
8
Centers
10
1159
20
-135
30
0
11
1159
21
-139
31
0
0
LINE
8
Centers
10
1183
20
-137
30
0
11
1187
21
-137
31
0
0
LINE
8
Centers
10
1185
20
-135
30
0
11
1185
21
-139
31
0
0
LINE
8
Centers
10
1209
20
-137
30
0
11
1213
21
-137
31
0
0
LINE
8
Centers
10
1211
20
-135
30
0
11
1211
21
-139
31
0
0
LINE
8
Centers
10
1235
20
-137
30
0
11
1239
21
-137
31
0
0
LINE
8
Centers
10
1237
20
-135
30
0
11
1237
21
-139
31
0
0
LINE
8
Centers
10
1261
20
-137
30
0
11
1265
21
-137
31
0
0
LINE
8
Centers
10
1263
20
-135
30
0
11
1263
21
-139
31
0
0
LINE
8
Centers
10
1287
20
-137
30
0
11
1291
21
-137
31
0
0
LINE
8
Centers
10
1289
20
-135
30
0
11
1289
21
-139
31
0
0
LINE
8
Centers
10
1298
20
-153
30
0
11
1302
21
-153
31
0
0
LINE
8
Centers
10
1300
20
-151
30
0
11
1300
21
-155
31
0
0
LINE
8
Centers
10
1297
20
-166
30
0
11
1301
21
-166
31
0
0
LINE
8
Centers
10
1299
20
-164
30
0
11
1299
21
-168
31
0
0
LINE
8
Centers
10
1290
20
-185
30
0
11
1294
21
-185
31
0
0
LINE
8
Centers
10
1292
20
-183
30
0
11
1292
21
-187
31
0
0
LINE
8
Centers
10
1264
20
-185
30
0
11
1268
21
-185
31
0
0
LINE
8
Centers
10
1266
20
-183
30
0
11
1266
21
-187
31
0
0
LINE
8
Centers
10
1238
20
-185
30
0
11
1242
21
-185
31
0
0
LINE
8
Centers
10
1240
20
-183
30
0
11
1240
21
-187
31
0
0
LINE
8
Centers
10
1225
20
-186
30
0
11
1229
21
-186
31
0
0
LINE
8
Centers
10
1227
20
-184
30
0
11
1227
21
-188
31
0
0
LINE
8
Centers
10
1199
20
-186
30
0
11
1203
21
-186
31
0
0
LINE
8
Centers
10
1201
20
-184
30
0
11
1201
21
-188
31
0
0
LINE
8
Centers
10
1178
20
-191
30
0
11
1182
21
-191
31
0
0
LINE
8
Centers
10
1180
20
-189
30
0
11
1180
21
-193
31
0
0
LINE
8
Centers
10
1178
20
-217
30
0
11
1182
21
-217
31
0
0
LINE
8
Centers
10
1180
20
-215
30
0
11
1180
21
-219
31
0
0
LINE
8
Centers
10
1178
20
-243
30
0
11
1182
21
-243
31
0
0
LINE
8
Centers
10
1180
20
-241
30
0
11
1180
21
-245
31
0
0
LINE
8
Centers
10
1178
20
-269
30
0
11
1182
21
-269
31
0
0
LINE
8
Centers
10
1180
20
-267
30
0
11
1180
21
-271
31
0
0
LINE
8
Centers
10
1190
20
-284
30
0
11
1194
21
-284
31
0
0
LINE
8
Centers
10
1192
20
-282
30
0
11
1192
21
-286
31
0
0
LINE
8
Centers
10
1216
20
-285
30
0
11
1220
21
-285
31
0
0
LINE
8
Centers
10
1218
20
-283
30
0
11
1218
21
-287
31
0
0
LINE
8
Centers
10
1229
20
-289
30
0
11
1233
21
-289
31
0
0
LINE
8
Centers
10
1231
20
-287
30
0
11
1231
21
-291
31
0
0
LINE
8
Centers
10
1253
20
-297
30
0
11
1257
21
-297
31
0
0
LINE
8
Centers
10
1255
20
-295
30
0
11
1255
21
-299
31
0
0
LINE
8
Centers
10
1264
20
-304
30
0
11
1268
21
-304
31
0
0
LINE
8
Centers
10
1266
20
-302
30
0
11
1266
21
-306
31
0
0
LINE
8
Centers
10
1284
20
-321
30
0
11
1288
21
-321
31
0
0
LINE
8
Centers
10
1286
20
-319
30
0
11
1286
21
-323
31
0
0
LINE
8
Centers
10
1301
20
-341
30
0
11
1305
21
-341
31
0
0
LINE
8
Centers
10
1303
20
-339
30
0
11
1303
21
-343
31
0
0
LINE
8
Centers
10
1311
20
-364
30
0
11
1315
21
-364
31
0
0
LINE
8
Centers
10
1313
20
-362
30
0
11
1313
21
-366
31
0
0
LINE
8
Centers
10
1314
20
-377
30
0
11
1318
21
-377
31
0
0
LINE
8
Centers
10
1316
20
-375
30
0
11
1316
21
-379
31
0
0
LINE
8
Centers
10
1317
20
-390
30
0
11
1321
21
-390
31
0
0
LINE
8
Centers
10
1319
20
-388
30
0
11
1319
21
-392
31
0
0
LINE
8
Centers
10
1316
20
-416
30
0
11
1320
21
-416
31
0
0
LINE
8
Centers
10
1318
20
-414
30
0
11
1318
21
-418
31
0
0
LINE
8
Centers
10
1312
20
-441
30
0
11
1316
21
-441
31
0
0
LINE
8
Centers
10
1314
20
-439
30
0
11
1314
21
-443
31
0
0
LINE
8
Centers
10
1302
20
-465
30
0
11
1306
21
-465
31
0
0
LINE
8
Centers
10
1304
20
-463
30
0
11
1304
21
-467
31
0
0
LINE
8
Centers
10
1286
20
-486
30
0
11
1290
21
-486
31
0
0
LINE
8
Centers
10
1288
20
-484
30
0
11
1288
21
-488
31
0
0
LINE
8
Centers
10
1266
20
-502
30
0
11
1270
21
-502
31
0
0
LINE
8
Centers
10
1268
20
-500
30
0
11
1268
21
-504
31
0
0
LINE
8
Centers
10
1244
20
-516
30
0
11
1248
21
-516
31
0
0
LINE
8
Centers
10
1246
20
-514
30
0
11
1246
21
-518
31
0
0
LINE
8
Centers
10
1219
20
-523
30
0
11
1223
21
-523
31
0
0
LINE
8
Centers
10
1221
20
-521
30
0
11
1221
21
-525
31
0
0
LINE
8
Centers
10
1206
20
-525
30
0
11
1210
21
-525
31
0
0
LINE
8
Centers
10
1208
20
-523
30
0
11
1208
21
-527
31
0
0
LINE
8
Centers
10
1193
20
-526
30
0
11
1197
21
-526
31
0
0
LINE
8
Centers
10
1195
20
-524
30
0
11
1195
21
-528
31
0
0
LINE
8
Centers
10
1167
20
-524
30
0
11
1171
21
-524
31
0
0
LINE
8
Centers
10
1169
20
-522
30
0
11
1169
21
-526
31
0
0
LINE
8
Centers
10
1142
20
-518
30
0
11
1146
21
-518
31
0
0
LINE
8
Centers
10
1144
20
-516
30
0
11
1144
21
-520
31
0
0
LINE
8
Centers
10
1117
20
-510
30
0
11
1121
21
-510
31
0
0
LINE
8
Centers
10
1119
20
-508
30
0
11
1119
21
-512
31
0
0
LINE
8
Centers
10
1100
20
-494
30
0
11
1104
21
-494
31
0
0
LINE
8
Centers
10
1102
20
-492
30
0
11
1102
21
-496
31
0
0
LINE
8
Centers
10
1101
20
-481
30
0
11
1105
21
-481
31
0
0
LINE
8
Centers
10
1103
20
-479
30
0
11
1103
21
-483
31
0
0
LINE
8
Centers
10
1102
20
-468
30
0
11
1106
21
-468
31
0
0
LINE
8
Centers
10
1104
20
-466
30
0
11
1104
21
-470
31
0
0
LINE
8
Centers
10
1103
20
-455
30
0
11
1107
21
-455
31
0
0
LINE
8
Centers
10
1105
20
-453
30
0
11
1105
21
-457
31
0
0
LINE
8
Centers
10
1121
20
-460
30
0
11
1125
21
-460
31
0
0
LINE
8
Centers
10
1123
20
-458
30
0
11
1123
21
-462
31
0
0
LINE
8
Centers
10
1146
20
-469
30
0
11
1150
21
-469
31
0
0
LINE
8
Centers
10
1148
20
-467
30
0
11
1148
21
-471
31
0
0
LINE
8
Centers
10
1171
20
-474
30
0
11
1175
21
-474
31
0
0
LINE
8
Centers
10
1173
20
-472
30
0
11
1173
21
-476
31
0
0
LINE
8
Centers
10
1184
20
-475
30
0
11
1188
21
-475
31
0
0
LINE
8
Centers
10
1186
20
-473
30
0
11
1186
21
-477
31
0
0
LINE
8
Centers
10
1197
20
-473
30
0
11
1201
21
-473
31
0
0
LINE
8
Centers
10
1199
20
-471
30
0
11
1199
21
-475
31
0
0
LINE
8
Centers
10
1221
20
-466
30
0
11
1225
21
-466
31
0
0
LINE
8
Centers
10
1223
20
-464
30
0
11
1223
21
-468
31
0
0
LINE
8
Centers
10
1233
20
-460
30
0
11
1237
21
-460
31
0
0
LINE
8
Centers
10
1235
20
-458
30
0
11
1235
21
-462
31
0
0
LINE
8
Centers
10
1252
20
-442
30
0
11
1256
21
-442
31
0
0
LINE
8
Centers
10
1254
20
-440
30
0
11
1254
21
-444
31
0
0
LINE
8
Centers
10
1262
20
-419
30
0
11
1266
21
-419
31
0
0
LINE
8
Centers
10
1264
20
-417
30
0
11
1264
21
-421
31
0
0
LINE
8
Centers
10
1264
20
-406
30
0
11
1268
21
-406
31
0
0
LINE
8
Centers
10
1266
20
-404
30
0
11
1266
21
-408
31
0
0
LINE
8
Centers
10
1263
20
-393
30
0
11
1267
21
-393
31
0
0
LINE
8
Centers
10
1265
20
-391
30
0
11
1265
21
-395
31
0
0
LINE
8
Centers
10
1259
20
-380
30
0
11
1263
21
-380
31
0
0
LINE
8
Centers
10
1261
20
-378
30
0
11
1261
21
-382
31
0
0
LINE
8
Centers
10
1247
20
-358
30
0
11
1251
21
-358
31
0
0
LINE
8
Centers
10
1249
20
-356
30
0
11
1249
21
-360
31
0
0
LINE
8
Centers
10
1226
20
-342
30
0
11
1230
21
-342
31
0
0
LINE
8
Centers
10
1228
20
-340
30
0
11
1228
21
-344
31
0
0
LINE
8
Centers
10
1201
20
-334
30
0
11
1205
21
-334
31
0
0
LINE
8
Centers
10
1203
20
-332
30
0
11
1203
21
-336
31
0
0
LINE
8
Centers
10
1176
20
-332
30
0
11
1180
21
-332
31
0
0
LINE
8
Centers
10
1178
20
-330
30
0
11
1178
21
-334
31
0
0
LINE
8
Centers
10
1150
20
-333
30
0
11
1154
21
-333
31
0
0
LINE
8
Centers
10
1152
20
-331
30
0
11
1152
21
-335
31
0
0
LINE
8
Centers
10
1137
20
-334
30
0
11
1141
21
-334
31
0
0
LINE
8
Centers
10
1139
20
-332
30
0
11
1139
21
-336
31
0
0
LINE
8
Centers
10
1129
20
-316
30
0
11
1133
21
-316
31
0
0
LINE
8
Centers
10
1131
20
-314
30
0
11
1131
21
-318
31
0
0
LINE
8
Centers
10
1129
20
-290
30
0
11
1133
21
-290
31
0
0
LINE
8
Centers
10
1131
20
-288
30
0
11
1131
21
-292
31
0
0
LINE
8
Centers
10
1129
20
-264
30
0
11
1133
21
-264
31
0
0
LINE
8
Centers
10
1131
20
-262
30
0
11
1131
21
-266
31
0
0
LINE
8
Centers
10
1129
20
-238
30
0
11
1133
21
-238
31
0
0
LINE
8
Centers
10
1131
20
-236
30
0
11
1131
21
-240
31
0
0
LINE
8
Centers
10
1129
20
-212
30
0
11
1133
21
-212
31
0
0
LINE
8
Centers
10
1131
20
-210
30
0
11
1131
21
-214
31
0
0
LINE
8
Centers
10
1129
20
-186
30
0
11
1133
21
-186
31
0
0
LINE
8
Centers
10
1131
20
-184
30
0
11
1131
21
-188
31
0
0
LINE
8
Centers
10
1129
20
-160
30
0
11
1133
21
-160
31
0
0
LINE
8
Centers
10
1131
20
-158
30
0
11
1131
21
-162
31
0
0
LINE
8
Centers
10
899
20
-132
30
0
11
903
21
-132
31
0
0
LINE
8
Centers
10
901
20
-130
30
0
11
901
21
-134
31
0
0
LINE
8
Centers
10
912
20
-133
30
0
11
916
21
-133
31
0
0
LINE
8
Centers
10
914
20
-131
30
0
11
914
21
-135
31
0
0
LINE
8
Centers
10
938
20
-136
30
0
11
942
21
-136
31
0
0
LINE
8
Centers
10
940
20
-134
30
0
11
940
21
-138
31
0
0
LINE
8
Centers
10
962
20
-145
30
0
11
966
21
-145
31
0
0
LINE
8
Centers
10
964
20
-143
30
0
11
964
21
-147
31
0
0
LINE
8
Centers
10
973
20
-152
30
0
11
977
21
-152
31
0
0
LINE
8
Centers
10
975
20
-150
30
0
11
975
21
-154
31
0
0
LINE
8
Centers
10
984
20
-160
30
0
11
988
21
-160
31
0
0
LINE
8
Centers
10
986
20
-158
30
0
11
986
21
-162
31
0
0
LINE
8
Centers
10
1001
20
-179
30
0
11
1005
21
-179
31
0
0
LINE
8
Centers
10
1003
20
-177
30
0
11
1003
21
-181
31
0
0
LINE
8
Centers
10
1008
20
-190
30
0
11
1012
21
-190
31
0
0
LINE
8
Centers
10
1010
20
-188
30
0
11
1010
21
-192
31
0
0
LINE
8
Centers
10
1018
20
-214
30
0
11
1022
21
-214
31
0
0
LINE
8
Centers
10
1020
20
-212
30
0
11
1020
21
-216
31
0
0
LINE
8
Centers
10
1023
20
-239
30
0
11
1027
21
-239
31
0
0
LINE
8
Centers
10
1025
20
-237
30
0
11
1025
21
-241
31
0
0
LINE
8
Centers
10
1024
20
-252
30
0
11
1028
21
-252
31
0
0
LINE
8
Centers
10
1026
20
-250
30
0
11
1026
21
-254
31
0
0
LINE
8
Centers
10
1023
20
-265
30
0
11
1027
21
-265
31
0
0
LINE
8
Centers
10
1025
20
-263
30
0
11
1025
21
-267
31
0
0
LINE
8
Centers
10
1022
20
-278
30
0
11
1026
21
-278
31
0
0
LINE
8
Centers
10
1024
20
-276
30
0
11
1024
21
-280
31
0
0
LINE
8
Centers
10
1019
20
-291
30
0
11
1023
21
-291
31
0
0
LINE
8
Centers
10
1021
20
-289
30
0
11
1021
21
-293
31
0
0
LINE
8
Centers
10
1009
20
-315
30
0
11
1013
21
-315
31
0
0
LINE
8
Centers
10
1011
20
-313
30
0
11
1011
21
-317
31
0
0
LINE
8
Centers
10
999
20
-339
30
0
11
1003
21
-339
31
0
0
LINE
8
Centers
10
1001
20
-337
30
0
11
1001
21
-341
31
0
0
LINE
8
Centers
10
992
20
-350
30
0
11
996
21
-350
31
0
0
LINE
8
Centers
10
994
20
-348
30
0
11
994
21
-352
31
0
0
LINE
8
Centers
10
985
20
-361
30
0
11
989
21
-361
31
0
0
LINE
8
Centers
10
987
20
-359
30
0
11
987
21
-363
31
0
0
LINE
8
Centers
10
978
20
-372
30
0
11
982
21
-372
31
0
0
LINE
8
Centers
10
980
20
-370
30
0
11
980
21
-374
31
0
0
LINE
8
Centers
10
971
20
-383
30
0
11
975
21
-383
31
0
0
LINE
8
Centers
10
973
20
-381
30
0
11
973
21
-385
31
0
0
LINE
8
Centers
10
955
20
-403
30
0
11
959
21
-403
31
0
0
LINE
8
Centers
10
957
20
-401
30
0
11
957
21
-405
31
0
0
LINE
8
Centers
10
947
20
-414
30
0
11
951
21
-414
31
0
0
LINE
8
Centers
10
949
20
-412
30
0
11
949
21
-416
31
0
0
LINE
8
Centers
10
930
20
-434
30
0
11
934
21
-434
31
0
0
LINE
8
Centers
10
932
20
-432
30
0
11
932
21
-436
31
0
0
LINE
8
Centers
10
914
20
-454
30
0
11
918
21
-454
31
0
0
LINE
8
Centers
10
916
20
-452
30
0
11
916
21
-456
31
0
0
LINE
8
Centers
10
906
20
-465
30
0
11
910
21
-465
31
0
0
LINE
8
Centers
10
908
20
-463
30
0
11
908
21
-467
31
0
0
LINE
8
Centers
10
926
20
-469
30
0
11
930
21
-469
31
0
0
LINE
8
Centers
10
928
20
-467
30
0
11
928
21
-471
31
0
0
LINE
8
Centers
10
952
20
-469
30
0
11
956
21
-469
31
0
0
LINE
8
Centers
10
954
20
-467
30
0
11
954
21
-471
31
0
0
LINE
8
Centers
10
978
20
-469
30
0
11
982
21
-469
31
0
0
LINE
8
Centers
10
980
20
-467
30
0
11
980
21
-471
31
0
0
LINE
8
Centers
10
1004
20
-469
30
0
11
1008
21
-469
31
0
0
LINE
8
Centers
10
1006
20
-467
30
0
11
1006
21
-471
31
0
0
LINE
8
Centers
10
1030
20
-469
30
0
11
1034
21
-469
31
0
0
LINE
8
Centers
10
1032
20
-467
30
0
11
1032
21
-471
31
0
0
LINE
8
Centers
10
1051
20
-476
30
0
11
1055
21
-476
31
0
0
LINE
8
Centers
10
1053
20
-474
30
0
11
1053
21
-478
31
0
0
LINE
8
Centers
10
1050
20
-502
30
0
11
1054
21
-502
31
0
0
LINE
8
Centers
10
1052
20
-500
30
0
11
1052
21
-504
31
0
0
LINE
8
Centers
10
1042
20
-520
30
0
11
1046
21
-520
31
0
0
LINE
8
Centers
10
1044
20
-518
30
0
11
1044
21
-522
31
0
0
LINE
8
Centers
10
1016
20
-520
30
0
11
1020
21
-520
31
0
0
LINE
8
Centers
10
1018
20
-518
30
0
11
1018
21
-522
31
0
0
LINE
8
Centers
10
990
20
-520
30
0
11
994
21
-520
31
0
0
LINE
8
Centers
10
992
20
-518
30
0
11
992
21
-522
31
0
0
LINE
8
Centers
10
964
20
-520
30
0
11
968
21
-520
31
0
0
LINE
8
Centers
10
966
20
-518
30
0
11
966
21
-522
31
0
0
LINE
8
Centers
10
938
20
-520
30
0
11
942
21
-520
31
0
0
LINE
8
Centers
10
940
20
-518
30
0
11
940
21
-522
31
0
0
LINE
8
Centers
10
925
20
-521
30
0
11
929
21
-521
31
0
0
LINE
8
Centers
10
927
20
-519
30
0
11
927
21
-523
31
0
0
LINE
8
Centers
10
899
20
-521
30
0
11
903
21
-521
31
0
0
LINE
8
Centers
10
901
20
-519
30
0
11
901
21
-523
31
0
0
LINE
8
Centers
10
873
20
-521
30
0
11
877
21
-521
31
0
0
LINE
8
Centers
10
875
20
-519
30
0
11
875
21
-523
31
0
0
LINE
8
Centers
10
847
20
-521
30
0
11
851
21
-521
31
0
0
LINE
8
Centers
10
849
20
-519
30
0
11
849
21
-523
31
0
0
LINE
8
Centers
10
821
20
-521
30
0
11
825
21
-521
31
0
0
LINE
8
Centers
10
823
20
-519
30
0
11
823
21
-523
31
0
0
LINE
8
Centers
10
818
20
-508
30
0
11
822
21
-508
31
0
0
LINE
8
Centers
10
820
20
-506
30
0
11
820
21
-510
31
0
0
LINE
8
Centers
10
834
20
-488
30
0
11
838
21
-488
31
0
0
LINE
8
Centers
10
836
20
-486
30
0
11
836
21
-490
31
0
0
LINE
8
Centers
10
851
20
-468
30
0
11
855
21
-468
31
0
0
LINE
8
Centers
10
853
20
-466
30
0
11
853
21
-470
31
0
0
LINE
8
Centers
10
867
20
-448
30
0
11
871
21
-448
31
0
0
LINE
8
Centers
10
869
20
-446
30
0
11
869
21
-450
31
0
0
LINE
8
Centers
10
883
20
-427
30
0
11
887
21
-427
31
0
0
LINE
8
Centers
10
885
20
-425
30
0
11
885
21
-429
31
0
0
LINE
8
Centers
10
899
20
-406
30
0
11
903
21
-406
31
0
0
LINE
8
Centers
10
901
20
-404
30
0
11
901
21
-408
31
0
0
LINE
8
Centers
10
914
20
-385
30
0
11
918
21
-385
31
0
0
LINE
8
Centers
10
916
20
-383
30
0
11
916
21
-387
31
0
0
LINE
8
Centers
10
929
20
-364
30
0
11
933
21
-364
31
0
0
LINE
8
Centers
10
931
20
-362
30
0
11
931
21
-366
31
0
0
LINE
8
Centers
10
936
20
-353
30
0
11
940
21
-353
31
0
0
LINE
8
Centers
10
938
20
-351
30
0
11
938
21
-355
31
0
0
LINE
8
Centers
10
943
20
-342
30
0
11
947
21
-342
31
0
0
LINE
8
Centers
10
945
20
-340
30
0
11
945
21
-344
31
0
0
LINE
8
Centers
10
955
20
-319
30
0
11
959
21
-319
31
0
0
LINE
8
Centers
10
957
20
-317
30
0
11
957
21
-321
31
0
0
LINE
8
Centers
10
964
20
-295
30
0
11
968
21
-295
31
0
0
LINE
8
Centers
10
966
20
-293
30
0
11
966
21
-297
31
0
0
LINE
8
Centers
10
968
20
-282
30
0
11
972
21
-282
31
0
0
LINE
8
Centers
10
970
20
-280
30
0
11
970
21
-284
31
0
0
LINE
8
Centers
10
969
20
-269
30
0
11
973
21
-269
31
0
0
LINE
8
Centers
10
971
20
-267
30
0
11
971
21
-271
31
0
0
LINE
8
Centers
10
970
20
-256
30
0
11
974
21
-256
31
0
0
LINE
8
Centers
10
972
20
-254
30
0
11
972
21
-258
31
0
0
LINE
8
Centers
10
968
20
-243
30
0
11
972
21
-243
31
0
0
LINE
8
Centers
10
970
20
-241
30
0
11
970
21
-245
31
0
0
LINE
8
Centers
10
961
20
-219
30
0
11
965
21
-219
31
0
0
LINE
8
Centers
10
963
20
-217
30
0
11
963
21
-221
31
0
0
LINE
8
Centers
10
954
20
-208
30
0
11
958
21
-208
31
0
0
LINE
8
Centers
10
956
20
-206
30
0
11
956
21
-210
31
0
0
LINE
8
Centers
10
944
20
-199
30
0
11
948
21
-199
31
0
0
LINE
8
Centers
10
946
20
-197
30
0
11
946
21
-201
31
0
0
LINE
8
Centers
10
933
20
-192
30
0
11
937
21
-192
31
0
0
LINE
8
Centers
10
935
20
-190
30
0
11
935
21
-194
31
0
0
LINE
8
Centers
10
908
20
-185
30
0
11
912
21
-185
31
0
0
LINE
8
Centers
10
910
20
-183
30
0
11
910
21
-187
31
0
0
LINE
8
Centers
10
883
20
-188
30
0
11
887
21
-188
31
0
0
LINE
8
Centers
10
885
20
-186
30
0
11
885
21
-190
31
0
0
LINE
8
Centers
10
870
20
-191
30
0
11
874
21
-191
31
0
0
LINE
8
Centers
10
872
20
-189
30
0
11
872
21
-193
31
0
0
LINE
8
Centers
10
848
20
-204
30
0
11
852
21
-204
31
0
0
LINE
8
Centers
10
850
20
-202
30
0
11
850
21
-206
31
0
0
LINE
8
Centers
10
829
20
-222
30
0
11
833
21
-222
31
0
0
LINE
8
Centers
10
831
20
-220
30
0
11
831
21
-224
31
0
0
LINE
8
Centers
10
818
20
-209
30
0
11
822
21
-209
31
0
0
LINE
8
Centers
10
820
20
-207
30
0
11
820
21
-211
31
0
0
LINE
8
Centers
10
817
20
-196
30
0
11
821
21
-196
31
0
0
LINE
8
Centers
10
819
20
-194
30
0
11
819
21
-198
31
0
0
LINE
8
Centers
10
817
20
-170
30
0
11
821
21
-170
31
0
0
LINE
8
Centers
10
819
20
-168
30
0
11
819
21
-172
31
0
0
LINE
8
Centers
10
838
20
-155
30
0
11
842
21
-155
31
0
0
LINE
8
Centers
10
840
20
-153
30
0
11
840
21
-157
31
0
0
LINE
8
Centers
10
849
20
-148
30
0
11
853
21
-148
31
0
0
LINE
8
Centers
10
851
20
-146
30
0
11
851
21
-150
31
0
0
LINE
8
Centers
10
873
20
-138
30
0
11
877
21
-138
31
0
0
LINE
8
Centers
10
875
20
-136
30
0
11
875
21
-140
31
0
0
LINE
8
Centers
10
645
20
-132
30
0
11
649
21
-132
31
0
0
LINE
8
Centers
10
647
20
-130
30
0
11
647
21
-134
31
0
0
LINE
8
Centers
10
658
20
-134
30
0
11
662
21
-134
31
0
0
LINE
8
Centers
10
660
20
-132
30
0
11
660
21
-136
31
0
0
LINE
8
Centers
10
671
20
-135
30
0
11
675
21
-135
31
0
0
LINE
8
Centers
10
673
20
-133
30
0
11
673
21
-137
31
0
0
LINE
8
Centers
10
695
20
-145
30
0
11
699
21
-145
31
0
0
LINE
8
Centers
10
697
20
-143
30
0
11
697
21
-147
31
0
0
LINE
8
Centers
10
706
20
-153
30
0
11
710
21
-153
31
0
0
LINE
8
Centers
10
708
20
-151
30
0
11
708
21
-155
31
0
0
LINE
8
Centers
10
724
20
-171
30
0
11
728
21
-171
31
0
0
LINE
8
Centers
10
726
20
-169
30
0
11
726
21
-173
31
0
0
LINE
8
Centers
10
733
20
-181
30
0
11
737
21
-181
31
0
0
LINE
8
Centers
10
735
20
-179
30
0
11
735
21
-183
31
0
0
LINE
8
Centers
10
740
20
-192
30
0
11
744
21
-192
31
0
0
LINE
8
Centers
10
742
20
-190
30
0
11
742
21
-194
31
0
0
LINE
8
Centers
10
746
20
-204
30
0
11
750
21
-204
31
0
0
LINE
8
Centers
10
748
20
-202
30
0
11
748
21
-206
31
0
0
LINE
8
Centers
10
752
20
-216
30
0
11
756
21
-216
31
0
0
LINE
8
Centers
10
754
20
-214
30
0
11
754
21
-218
31
0
0
LINE
8
Centers
10
760
20
-240
30
0
11
764
21
-240
31
0
0
LINE
8
Centers
10
762
20
-238
30
0
11
762
21
-242
31
0
0
LINE
8
Centers
10
763
20
-253
30
0
11
767
21
-253
31
0
0
LINE
8
Centers
10
765
20
-251
30
0
11
765
21
-255
31
0
0
LINE
8
Centers
10
766
20
-266
30
0
11
770
21
-266
31
0
0
LINE
8
Centers
10
768
20
-264
30
0
11
768
21
-268
31
0
0
LINE
8
Centers
10
768
20
-279
30
0
11
772
21
-279
31
0
0
LINE
8
Centers
10
770
20
-277
30
0
11
770
21
-281
31
0
0
LINE
8
Centers
10
770
20
-292
30
0
11
774
21
-292
31
0
0
LINE
8
Centers
10
772
20
-290
30
0
11
772
21
-294
31
0
0
LINE
8
Centers
10
771
20
-305
30
0
11
775
21
-305
31
0
0
LINE
8
Centers
10
773
20
-303
30
0
11
773
21
-307
31
0
0
LINE
8
Centers
10
771
20
-331
30
0
11
775
21
-331
31
0
0
LINE
8
Centers
10
773
20
-329
30
0
11
773
21
-333
31
0
0
LINE
8
Centers
10
771
20
-358
30
0
11
775
21
-358
31
0
0
LINE
8
Centers
10
773
20
-356
30
0
11
773
21
-360
31
0
0
LINE
8
Centers
10
769
20
-371
30
0
11
773
21
-371
31
0
0
LINE
8
Centers
10
771
20
-369
30
0
11
771
21
-373
31
0
0
LINE
8
Centers
10
768
20
-384
30
0
11
772
21
-384
31
0
0
LINE
8
Centers
10
770
20
-382
30
0
11
770
21
-386
31
0
0
LINE
8
Centers
10
763
20
-409
30
0
11
767
21
-409
31
0
0
LINE
8
Centers
10
765
20
-407
30
0
11
765
21
-411
31
0
0
LINE
8
Centers
10
759
20
-422
30
0
11
763
21
-422
31
0
0
LINE
8
Centers
10
761
20
-420
30
0
11
761
21
-424
31
0
0
LINE
8
Centers
10
750
20
-447
30
0
11
754
21
-447
31
0
0
LINE
8
Centers
10
752
20
-445
30
0
11
752
21
-449
31
0
0
LINE
8
Centers
10
738
20
-470
30
0
11
742
21
-470
31
0
0
LINE
8
Centers
10
740
20
-468
30
0
11
740
21
-472
31
0
0
LINE
8
Centers
10
730
20
-481
30
0
11
734
21
-481
31
0
0
LINE
8
Centers
10
732
20
-479
30
0
11
732
21
-483
31
0
0
LINE
8
Centers
10
713
20
-500
30
0
11
717
21
-500
31
0
0
LINE
8
Centers
10
715
20
-498
30
0
11
715
21
-502
31
0
0
LINE
8
Centers
10
702
20
-508
30
0
11
706
21
-508
31
0
0
LINE
8
Centers
10
704
20
-506
30
0
11
704
21
-510
31
0
0
LINE
8
Centers
10
691
20
-515
30
0
11
695
21
-515
31
0
0
LINE
8
Centers
10
693
20
-513
30
0
11
693
21
-517
31
0
0
LINE
8
Centers
10
667
20
-524
30
0
11
671
21
-524
31
0
0
LINE
8
Centers
10
669
20
-522
30
0
11
669
21
-526
31
0
0
LINE
8
Centers
10
654
20
-525
30
0
11
658
21
-525
31
0
0
LINE
8
Centers
10
656
20
-523
30
0
11
656
21
-527
31
0
0
LINE
8
Centers
10
628
20
-523
30
0
11
632
21
-523
31
0
0
LINE
8
Centers
10
630
20
-521
30
0
11
630
21
-525
31
0
0
LINE
8
Centers
10
615
20
-520
30
0
11
619
21
-520
31
0
0
LINE
8
Centers
10
617
20
-518
30
0
11
617
21
-522
31
0
0
LINE
8
Centers
10
603
20
-514
30
0
11
607
21
-514
31
0
0
LINE
8
Centers
10
605
20
-512
30
0
11
605
21
-516
31
0
0
LINE
8
Centers
10
592
20
-507
30
0
11
596
21
-507
31
0
0
LINE
8
Centers
10
594
20
-505
30
0
11
594
21
-509
31
0
0
LINE
8
Centers
10
582
20
-498
30
0
11
586
21
-498
31
0
0
LINE
8
Centers
10
584
20
-496
30
0
11
584
21
-500
31
0
0
LINE
8
Centers
10
565
20
-479
30
0
11
569
21
-479
31
0
0
LINE
8
Centers
10
567
20
-477
30
0
11
567
21
-481
31
0
0
LINE
8
Centers
10
558
20
-468
30
0
11
562
21
-468
31
0
0
LINE
8
Centers
10
560
20
-466
30
0
11
560
21
-470
31
0
0
LINE
8
Centers
10
551
20
-457
30
0
11
555
21
-457
31
0
0
LINE
8
Centers
10
553
20
-455
30
0
11
553
21
-459
31
0
0
LINE
8
Centers
10
540
20
-433
30
0
11
544
21
-433
31
0
0
LINE
8
Centers
10
542
20
-431
30
0
11
542
21
-435
31
0
0
LINE
8
Centers
10
537
20
-420
30
0
11
541
21
-420
31
0
0
LINE
8
Centers
10
539
20
-418
30
0
11
539
21
-422
31
0
0
LINE
8
Centers
10
534
20
-407
30
0
11
538
21
-407
31
0
0
LINE
8
Centers
10
536
20
-405
30
0
11
536
21
-409
31
0
0
LINE
8
Centers
10
531
20
-394
30
0
11
535
21
-394
31
0
0
LINE
8
Centers
10
533
20
-392
30
0
11
533
21
-396
31
0
0
LINE
8
Centers
10
527
20
-369
30
0
11
531
21
-369
31
0
0
LINE
8
Centers
10
529
20
-367
30
0
11
529
21
-371
31
0
0
LINE
8
Centers
10
525
20
-355
30
0
11
529
21
-355
31
0
0
LINE
8
Centers
10
527
20
-353
30
0
11
527
21
-357
31
0
0
LINE
8
Centers
10
525
20
-329
30
0
11
529
21
-329
31
0
0
LINE
8
Centers
10
527
20
-327
30
0
11
527
21
-331
31
0
0
LINE
8
Centers
10
525
20
-303
30
0
11
529
21
-303
31
0
0
LINE
8
Centers
10
527
20
-301
30
0
11
527
21
-305
31
0
0
LINE
8
Centers
10
527
20
-290
30
0
11
531
21
-290
31
0
0
LINE
8
Centers
10
529
20
-288
30
0
11
529
21
-292
31
0
0
LINE
8
Centers
10
528
20
-277
30
0
11
532
21
-277
31
0
0
LINE
8
Centers
10
530
20
-275
30
0
11
530
21
-279
31
0
0
LINE
8
Centers
10
530
20
-264
30
0
11
534
21
-264
31
0
0
LINE
8
Centers
10
532
20
-262
30
0
11
532
21
-266
31
0
0
LINE
8
Centers
10
533
20
-251
30
0
11
537
21
-251
31
0
0
LINE
8
Centers
10
535
20
-249
30
0
11
535
21
-253
31
0
0
LINE
8
Centers
10
536
20
-238
30
0
11
540
21
-238
31
0
0
LINE
8
Centers
10
538
20
-236
30
0
11
538
21
-240
31
0
0
LINE
8
Centers
10
545
20
-214
30
0
11
549
21
-214
31
0
0
LINE
8
Centers
10
547
20
-212
30
0
11
547
21
-216
31
0
0
LINE
8
Centers
10
551
20
-202
30
0
11
555
21
-202
31
0
0
LINE
8
Centers
10
553
20
-200
30
0
11
553
21
-204
31
0
0
LINE
8
Centers
10
558
20
-191
30
0
11
562
21
-191
31
0
0
LINE
8
Centers
10
560
20
-189
30
0
11
560
21
-193
31
0
0
LINE
8
Centers
10
565
20
-180
30
0
11
569
21
-180
31
0
0
LINE
8
Centers
10
567
20
-178
30
0
11
567
21
-182
31
0
0
LINE
8
Centers
10
573
20
-169
30
0
11
577
21
-169
31
0
0
LINE
8
Centers
10
575
20
-167
30
0
11
575
21
-171
31
0
0
LINE
8
Centers
10
592
20
-151
30
0
11
596
21
-151
31
0
0
LINE
8
Centers
10
594
20
-149
30
0
11
594
21
-153
31
0
0
LINE
8
Centers
10
603
20
-144
30
0
11
607
21
-144
31
0
0
LINE
8
Centers
10
605
20
-142
30
0
11
605
21
-146
31
0
0
LINE
8
Centers
10
627
20
-135
30
0
11
631
21
-135
31
0
0
LINE
8
Centers
10
629
20
-133
30
0
11
629
21
-137
31
0
0
LINE
8
Centers
10
335
20
-132
30
0
11
339
21
-132
31
0
0
LINE
8
Centers
10
337
20
-130
30
0
11
337
21
-134
31
0
0
LINE
8
Centers
10
348
20
-133
30
0
11
352
21
-133
31
0
0
LINE
8
Centers
10
350
20
-131
30
0
11
350
21
-135
31
0
0
LINE
8
Centers
10
361
20
-135
30
0
11
365
21
-135
31
0
0
LINE
8
Centers
10
363
20
-133
30
0
11
363
21
-137
31
0
0
LINE
8
Centers
10
374
20
-136
30
0
11
378
21
-136
31
0
0
LINE
8
Centers
10
376
20
-134
30
0
11
376
21
-138
31
0
0
LINE
8
Centers
10
398
20
-145
30
0
11
402
21
-145
31
0
0
LINE
8
Centers
10
400
20
-143
30
0
11
400
21
-147
31
0
0
LINE
8
Centers
10
409
20
-152
30
0
11
413
21
-152
31
0
0
LINE
8
Centers
10
411
20
-150
30
0
11
411
21
-154
31
0
0
LINE
8
Centers
10
420
20
-160
30
0
11
424
21
-160
31
0
0
LINE
8
Centers
10
422
20
-158
30
0
11
422
21
-162
31
0
0
LINE
8
Centers
10
437
20
-179
30
0
11
441
21
-179
31
0
0
LINE
8
Centers
10
439
20
-177
30
0
11
439
21
-181
31
0
0
LINE
8
Centers
10
444
20
-190
30
0
11
448
21
-190
31
0
0
LINE
8
Centers
10
446
20
-188
30
0
11
446
21
-192
31
0
0
LINE
8
Centers
10
450
20
-202
30
0
11
454
21
-202
31
0
0
LINE
8
Centers
10
452
20
-200
30
0
11
452
21
-204
31
0
0
LINE
8
Centers
10
457
20
-226
30
0
11
461
21
-226
31
0
0
LINE
8
Centers
10
459
20
-224
30
0
11
459
21
-228
31
0
0
LINE
8
Centers
10
459
20
-239
30
0
11
463
21
-239
31
0
0
LINE
8
Centers
10
461
20
-237
30
0
11
461
21
-241
31
0
0
LINE
8
Centers
10
458
20
-252
30
0
11
462
21
-252
31
0
0
LINE
8
Centers
10
460
20
-250
30
0
11
460
21
-254
31
0
0
LINE
8
Centers
10
457
20
-278
30
0
11
461
21
-278
31
0
0
LINE
8
Centers
10
459
20
-276
30
0
11
459
21
-280
31
0
0
LINE
8
Centers
10
454
20
-291
30
0
11
458
21
-291
31
0
0
LINE
8
Centers
10
456
20
-289
30
0
11
456
21
-293
31
0
0
LINE
8
Centers
10
446
20
-316
30
0
11
450
21
-316
31
0
0
LINE
8
Centers
10
448
20
-314
30
0
11
448
21
-318
31
0
0
LINE
8
Centers
10
435
20
-339
30
0
11
439
21
-339
31
0
0
LINE
8
Centers
10
437
20
-337
30
0
11
437
21
-341
31
0
0
LINE
8
Centers
10
428
20
-350
30
0
11
432
21
-350
31
0
0
LINE
8
Centers
10
430
20
-348
30
0
11
430
21
-352
31
0
0
LINE
8
Centers
10
421
20
-361
30
0
11
425
21
-361
31
0
0
LINE
8
Centers
10
423
20
-359
30
0
11
423
21
-363
31
0
0
LINE
8
Centers
10
414
20
-372
30
0
11
418
21
-372
31
0
0
LINE
8
Centers
10
416
20
-370
30
0
11
416
21
-374
31
0
0
LINE
8
Centers
10
407
20
-383
30
0
11
411
21
-383
31
0
0
LINE
8
Centers
10
409
20
-381
30
0
11
409
21
-385
31
0
0
LINE
8
Centers
10
391
20
-403
30
0
11
395
21
-403
31
0
0
LINE
8
Centers
10
393
20
-401
30
0
11
393
21
-405
31
0
0
LINE
8
Centers
10
383
20
-414
30
0
11
387
21
-414
31
0
0
LINE
8
Centers
10
385
20
-412
30
0
11
385
21
-416
31
0
0
LINE
8
Centers
10
366
20
-434
30
0
11
370
21
-434
31
0
0
LINE
8
Centers
10
368
20
-432
30
0
11
368
21
-436
31
0
0
LINE
8
Centers
10
350
20
-454
30
0
11
354
21
-454
31
0
0
LINE
8
Centers
10
352
20
-452
30
0
11
352
21
-456
31
0
0
LINE
8
Centers
10
343
20
-465
30
0
11
347
21
-465
31
0
0
LINE
8
Centers
10
345
20
-463
30
0
11
345
21
-467
31
0
0
LINE
8
Centers
10
363
20
-469
30
0
11
367
21
-469
31
0
0
LINE
8
Centers
10
365
20
-467
30
0
11
365
21
-471
31
0
0
LINE
8
Centers
10
389
20
-469
30
0
11
393
21
-469
31
0
0
LINE
8
Centers
10
391
20
-467
30
0
11
391
21
-471
31
0
0
LINE
8
Centers
10
415
20
-470
30
0
11
419
21
-470
31
0
0
LINE
8
Centers
10
417
20
-468
30
0
11
417
21
-472
31
0
0
LINE
8
Centers
10
441
20
-470
30
0
11
445
21
-470
31
0
0
LINE
8
Centers
10
443
20
-468
30
0
11
443
21
-472
31
0
0
LINE
8
Centers
10
467
20
-470
30
0
11
471
21
-470
31
0
0
LINE
8
Centers
10
469
20
-468
30
0
11
469
21
-472
31
0
0
LINE
8
Centers
10
486
20
-477
30
0
11
490
21
-477
31
0
0
LINE
8
Centers
10
488
20
-475
30
0
11
488
21
-479
31
0
0
LINE
8
Centers
10
486
20
-503
30
0
11
490
21
-503
31
0
0
LINE
8
Centers
10
488
20
-501
30
0
11
488
21
-505
31
0
0
LINE
8
Centers
10
477
20
-520
30
0
11
481
21
-520
31
0
0
LINE
8
Centers
10
479
20
-518
30
0
11
479
21
-522
31
0
0
LINE
8
Centers
10
451
20
-520
30
0
11
455
21
-520
31
0
0
LINE
8
Centers
10
453
20
-518
30
0
11
453
21
-522
31
0
0
LINE
8
Centers
10
425
20
-520
30
0
11
429
21
-520
31
0
0
LINE
8
Centers
10
427
20
-518
30
0
11
427
21
-522
31
0
0
LINE
8
Centers
10
399
20
-520
30
0
11
403
21
-520
31
0
0
LINE
8
Centers
10
401
20
-518
30
0
11
401
21
-522
31
0
0
LINE
8
Centers
10
373
20
-520
30
0
11
377
21
-520
31
0
0
LINE
8
Centers
10
375
20
-518
30
0
11
375
21
-522
31
0
0
LINE
8
Centers
10
360
20
-521
30
0
11
364
21
-521
31
0
0
LINE
8
Centers
10
362
20
-519
30
0
11
362
21
-523
31
0
0
LINE
8
Centers
10
334
20
-521
30
0
11
338
21
-521
31
0
0
LINE
8
Centers
10
336
20
-519
30
0
11
336
21
-523
31
0
0
LINE
8
Centers
10
308
20
-521
30
0
11
312
21
-521
31
0
0
LINE
8
Centers
10
310
20
-519
30
0
11
310
21
-523
31
0
0
LINE
8
Centers
10
282
20
-521
30
0
11
286
21
-521
31
0
0
LINE
8
Centers
10
284
20
-519
30
0
11
284
21
-523
31
0
0
LINE
8
Centers
10
256
20
-521
30
0
11
260
21
-521
31
0
0
LINE
8
Centers
10
258
20
-519
30
0
11
258
21
-523
31
0
0
LINE
8
Centers
10
254
20
-508
30
0
11
258
21
-508
31
0
0
LINE
8
Centers
10
256
20
-506
30
0
11
256
21
-510
31
0
0
LINE
8
Centers
10
271
20
-488
30
0
11
275
21
-488
31
0
0
LINE
8
Centers
10
273
20
-486
30
0
11
273
21
-490
31
0
0
LINE
8
Centers
10
287
20
-467
30
0
11
291
21
-467
31
0
0
LINE
8
Centers
10
289
20
-465
30
0
11
289
21
-469
31
0
0
LINE
8
Centers
10
304
20
-447
30
0
11
308
21
-447
31
0
0
LINE
8
Centers
10
306
20
-445
30
0
11
306
21
-449
31
0
0
LINE
8
Centers
10
320
20
-427
30
0
11
324
21
-427
31
0
0
LINE
8
Centers
10
322
20
-425
30
0
11
322
21
-429
31
0
0
LINE
8
Centers
10
327
20
-416
30
0
11
331
21
-416
31
0
0
LINE
8
Centers
10
329
20
-414
30
0
11
329
21
-418
31
0
0
LINE
8
Centers
10
343
20
-396
30
0
11
347
21
-396
31
0
0
LINE
8
Centers
10
345
20
-394
30
0
11
345
21
-398
31
0
0
LINE
8
Centers
10
351
20
-385
30
0
11
355
21
-385
31
0
0
LINE
8
Centers
10
353
20
-383
30
0
11
353
21
-387
31
0
0
LINE
8
Centers
10
358
20
-374
30
0
11
362
21
-374
31
0
0
LINE
8
Centers
10
360
20
-372
30
0
11
360
21
-376
31
0
0
LINE
8
Centers
10
365
20
-363
30
0
11
369
21
-363
31
0
0
LINE
8
Centers
10
367
20
-361
30
0
11
367
21
-365
31
0
0
LINE
8
Centers
10
372
20
-352
30
0
11
376
21
-352
31
0
0
LINE
8
Centers
10
374
20
-350
30
0
11
374
21
-354
31
0
0
LINE
8
Centers
10
385
20
-330
30
0
11
389
21
-330
31
0
0
LINE
8
Centers
10
387
20
-328
30
0
11
387
21
-332
31
0
0
LINE
8
Centers
10
391
20
-318
30
0
11
395
21
-318
31
0
0
LINE
8
Centers
10
393
20
-316
30
0
11
393
21
-320
31
0
0
LINE
8
Centers
10
401
20
-294
30
0
11
405
21
-294
31
0
0
LINE
8
Centers
10
403
20
-292
30
0
11
403
21
-296
31
0
0
LINE
8
Centers
10
405
20
-269
30
0
11
409
21
-269
31
0
0
LINE
8
Centers
10
407
20
-267
30
0
11
407
21
-271
31
0
0
LINE
8
Centers
10
406
20
-256
30
0
11
410
21
-256
31
0
0
LINE
8
Centers
10
408
20
-254
30
0
11
408
21
-258
31
0
0
LINE
8
Centers
10
403
20
-243
30
0
11
407
21
-243
31
0
0
LINE
8
Centers
10
405
20
-241
30
0
11
405
21
-245
31
0
0
LINE
8
Centers
10
401
20
-230
30
0
11
405
21
-230
31
0
0
LINE
8
Centers
10
403
20
-228
30
0
11
403
21
-232
31
0
0
LINE
8
Centers
10
389
20
-207
30
0
11
393
21
-207
31
0
0
LINE
8
Centers
10
391
20
-205
30
0
11
391
21
-209
31
0
0
LINE
8
Centers
10
368
20
-192
30
0
11
372
21
-192
31
0
0
LINE
8
Centers
10
370
20
-190
30
0
11
370
21
-194
31
0
0
LINE
8
Centers
10
344
20
-185
30
0
11
348
21
-185
31
0
0
LINE
8
Centers
10
346
20
-183
30
0
11
346
21
-187
31
0
0
LINE
8
Centers
10
318
20
-188
30
0
11
322
21
-188
31
0
0
LINE
8
Centers
10
320
20
-186
30
0
11
320
21
-190
31
0
0
LINE
8
Centers
10
294
20
-198
30
0
11
298
21
-198
31
0
0
LINE
8
Centers
10
296
20
-196
30
0
11
296
21
-200
31
0
0
LINE
8
Centers
10
274
20
-213
30
0
11
278
21
-213
31
0
0
LINE
8
Centers
10
276
20
-211
30
0
11
276
21
-215
31
0
0
LINE
8
Centers
10
255
20
-232
30
0
11
259
21
-232
31
0
0
LINE
8
Centers
10
257
20
-230
30
0
11
257
21
-234
31
0
0
LINE
8
Centers
10
254
20
-209
30
0
11
258
21
-209
31
0
0
LINE
8
Centers
10
256
20
-207
30
0
11
256
21
-211
31
0
0
LINE
8
Centers
10
253
20
-196
30
0
11
257
21
-196
31
0
0
LINE
8
Centers
10
255
20
-194
30
0
11
255
21
-198
31
0
0
LINE
8
Centers
10
253
20
-170
30
0
11
257
21
-170
31
0
0
LINE
8
Centers
10
255
20
-168
30
0
11
255
21
-172
31
0
0
LINE
8
Centers
10
264
20
-162
30
0
11
268
21
-162
31
0
0
LINE
8
Centers
10
266
20
-160
30
0
11
266
21
-164
31
0
0
LINE
8
Centers
10
285
20
-147
30
0
11
289
21
-147
31
0
0
LINE
8
Centers
10
287
20
-145
30
0
11
287
21
-149
31
0
0
LINE
8
Centers
10
309
20
-138
30
0
11
313
21
-138
31
0
0
LINE
8
Centers
10
311
20
-136
30
0
11
311
21
-140
31
0
0
LINE
8
Centers
10
322
20
-134
30
0
11
326
21
-134
31
0
0
LINE
8
Centers
10
324
20
-132
30
0
11
324
21
-136
31
0
0
LINE
8
Centers
10
860
20
-141
30
0
11
864
21
-141
31
0
0
LINE
8
Centers
10
862
20
-139
30
0
11
862
21
-143
31
0
0
LINE
8
Centers
10
816
20
-234
30
0
11
820
21
-234
31
0
0
LINE
8
Centers
10
818
20
-232
30
0
11
818
21
-236
31
0
0
LINE
8
Centers
10
684
20
-138
30
0
11
688
21
-138
31
0
0
LINE
8
Centers
10
686
20
-136
30
0
11
686
21
-140
31
0
0
ENDSEC
0
EOF